<?xml version="1.0" standalone="no"?>
<!DOCTYPE svg PUBLIC "-//W3C//DTD SVG 20010904//EN"
 "http://www.w3.org/TR/2001/REC-SVG-20010904/DTD/svg10.dtd">
<svg version="1.0" xmlns="http://www.w3.org/2000/svg"
 width="90.000000pt" height="90.000000pt" viewBox="0 0 200.000000 200.000000"
 preserveAspectRatio="xMidYMid meet">
<metadata>
Created by potrace 1.16, written by Peter Selinger 2001-2019
</metadata>
<g transform="translate(0.000000,200.000000) scale(0.100000,-0.100000)"
fill="#DA328A" stroke="none">
<path d="M950 1695 c-7 -8 -10 -27 -7 -42 4 -20 -9 -54 -44 -124 -42 -85 -52
-98 -76 -101 -17 -2 -83 19 -165 52 -115 46 -138 58 -138 76 0 46 -69 75 -118
50 -49 -25 -56 -72 -17 -111 26 -27 72 -33 103 -14 13 8 43 0 142 -41 l125
-51 0 -40 c0 -37 -6 -45 -65 -98 l-65 -58 -60 4 c-53 4 -65 2 -99 -22 l-39
-26 -96 40 c-66 27 -97 45 -99 58 -8 41 -84 59 -116 27 -22 -21 -20 -67 2 -87
20 -18 77 -23 86 -8 3 5 52 -10 108 -34 91 -38 104 -47 109 -72 3 -15 11 -38
18 -51 11 -21 7 -30 -39 -91 -30 -41 -60 -71 -75 -75 -54 -14 -38 -86 20 -86
35 0 59 24 53 54 -2 8 19 44 45 80 49 66 49 66 98 66 27 0 60 7 72 15 21 13
27 11 79 -23 48 -31 57 -42 62 -74 12 -71 102 -94 154 -40 21 23 55 37 160 66
120 34 135 36 150 23 30 -27 72 -38 107 -28 31 8 38 5 91 -40 32 -27 63 -61
70 -77 27 -66 114 -50 114 21 0 30 -24 47 -67 47 -19 0 -47 15 -85 47 -48 40
-55 50 -48 69 15 39 -7 93 -46 111 l-34 17 0 138 c0 118 2 140 16 145 15 5
127 -48 215 -103 40 -25 221 -251 229 -287 5 -17 13 -22 40 -22 45 0 54 30 17
60 -27 21 -197 235 -197 247 0 4 37 35 81 70 66 51 87 62 113 60 38 -4 69 25
69 64 0 34 -26 54 -69 54 -35 0 -64 -28 -64 -61 0 -10 -38 -47 -87 -85 l-86
-68 -101 54 c-120 63 -126 67 -126 90 0 29 -37 53 -83 55 -37 1 -59 12 -140
70 -53 39 -96 77 -96 86 -1 8 -6 20 -13 27 -17 17 -73 15 -88 -3z m172 -150
c87 -64 104 -81 108 -108 3 -21 13 -35 28 -42 21 -9 22 -14 22 -152 0 -103 -3
-142 -12 -145 -19 -7 -325 240 -349 281 l-21 35 44 90 c39 80 62 116 74 116 2
0 50 -34 106 -75z m-62 -360 c80 -64 145 -119 144 -123 -7 -64 -9 -65 -146
-103 l-130 -36 -24 24 c-21 21 -32 24 -72 20 -41 -3 -55 1 -105 32 -52 32 -57
39 -53 63 3 15 0 41 -6 58 -10 31 -9 33 58 94 62 57 72 63 104 59 22 -3 42 1
55 11 11 8 22 15 25 16 3 0 70 -52 150 -115z"/>
</g>
</svg>
